<?xml version="1.0" standalone="no"?><!DOCTYPE svg PUBLIC "-//W3C//DTD SVG 1.1//EN" "http://www.w3.org/Graphics/SVG/1.1/DTD/svg11.dtd"><svg t="1578973211097" class="icon" viewBox="0 0 1024 1024" version="1.1" xmlns="http://www.w3.org/2000/svg" p-id="2872" xmlns:xlink="http://www.w3.org/1999/xlink" width="64" height="64"><defs><style type="text/css"></style></defs><path d="M128 96h341.333333a32 32 0 0 1 3.072 63.850667L469.333333 160H160v704h704V554.666667a32 32 0 0 1 63.850667-3.072L928 554.666667v341.333333a32 32 0 0 1-28.928 31.850667L896 928H128a32 32 0 0 1-31.850667-28.928L96 896V128a32 32 0 0 1 28.928-31.850667L128 96zM906.666667 85.333333A32 32 0 0 1 938.666667 117.333333V341.333333a32 32 0 1 1-64 0V191.658667L597.824 450.069333a32 32 0 0 1-42.88 0.704l-2.346667-2.282666a32 32 0 0 1-0.704-42.88l2.282667-2.346667L826.218667 149.333333H682.666667a32 32 0 0 1 0-64h224z" fill="#000000" p-id="2873"></path></svg>